<svg height="512" width="512" xmlns="http://www.w3.org/2000/svg"><path d="M440 376h-24l-88-200h-45.49a64 64 0 01-45.255-18.745l-26.51-26.51A64 64 0 01192 85.49V54.627a16 16 0 00-27.314-11.313L56 152l-10.535 10.535a64 64 0 000 90.51l78.059 78.055a16 16 0 0011.313 4.686H160a16 16 0 0116 16v25.583a16 16 0 004.686 11.313L247.2 455.2a112 112 0 0079.2 32.8H456a32 32 0 0032-32v-32a48 48 0 00-48-48z" fill="#606669"/><path d="M232 232L440 24H216l-96 96z" fill="#f5cbaa"/><path d="M328 192v-48a16 16 0 00-16-16h-24a16 16 0 00-16 16v48z" fill="#fde575"/><path d="M187.314 43.314a16 16 0 00-22.628 0L56 152l259.882 259.882A96 96 0 00383.765 440H488v-16a48 48 0 00-48-48h-24l-88-200h-45.49a64 64 0 01-45.255-18.745l-26.51-26.51A64 64 0 01192 85.49V54.627a16 16 0 00-4.686-11.313z" fill="#fde575"/><path d="M120 152a63.8 63.8 0 01-18.74 45.26L56 152l45.26-45.26A63.8 63.8 0 01120 152zm229.12 72h-69.36a95.982 95.982 0 01-67.88-28.12l-39.76-39.76A95.982 95.982 0 01144 88.24V64l20.69-20.69A16 16 0 01192 54.63v30.86a64 64 0 0018.75 45.26l26.5 26.5A64 64 0 00282.51 176H328zM352 488v-16a8 8 0 0116 0v16zm64 0v-16a8 8 0 0116 0v16z" fill="#99a2a7"/><path d="M96 352H24a8 8 0 010-16h72a8 8 0 010 16zm96 96H24a8 8 0 010-16h168a8 8 0 010 16zm-48-48H24a8 8 0 010-16h120a8 8 0 010 16z" fill="#b5b8b9"/><path d="M416 376h-19.119a32 32 0 01-29.29-19.112L288 176h40z" fill="#ebd46c"/><path d="M376 264h-88a8 8 0 010-16h88a8 8 0 010 16zm-16-32h-88a8 8 0 010-16h88a8 8 0 010 16zm32 64h-88a8 8 0 010-16h88a8 8 0 010 16zm16 32h-88a8 8 0 010-16h88a8 8 0 010 16z" fill="#606669"/><path d="M69.66 229.66l-23.79 23.79-.41-.41a64.156 64.156 0 01-9.59-12.23l22.47-22.47a8 8 0 0111.32 11.32zm48 48l-23.79 23.79-11.32-11.32 23.79-23.79a8 8 0 0111.32 11.32zm76.68 124.68l24-24a8 8 0 0111.32 11.32l-24 24zm83.32 35.32l-23.73 23.73q-3.48-2.94-6.73-6.19l-4.86-4.86 24-24a8 8 0 0111.32 11.32z" fill="#99a2a7"/></svg>