<svg version="1.0" xmlns="http://www.w3.org/2000/svg" width="1440" height="1440" viewBox="0 0 1080 1080"><path d="M457.7 159.5c-2.2.7-5 2.4-6.4 3.7-5.2 4.7-5.3 5.8-5.3 46.8 0 40.8 0 40.9 5.2 45.7 5 4.7 8.4 5.3 29.6 5.3h19.8l14.4 12.2c11.8 10 14.9 12.2 17.5 12.2 2.6 0 5.8-2.2 17.6-12.2l14.3-12.2h19.1c20.5 0 24.8-.7 29.5-4.7 6.1-5.1 6-4.6 6-46.8 0-42.2.1-41.7-6-46.8-1.7-1.5-4.7-3.1-6.8-3.7-2.4-.6-28.7-1-74.2-1-57.1.1-71.2.3-74.3 1.5zm53.3 30.6l4.8 2.1 4.1-2.1c4.7-2.5 12-2.7 16-.6 6.9 3.5 11 12.3 9.1 19.4-1.3 5-3.2 7-17.6 17.8l-12.1 9.1-13.2-10c-15.1-11.5-17.8-15-16.7-22.6.7-5.1 4.3-10.4 9-13.3 4.1-2.5 10.5-2.4 16.6.2zm62 21.9v21h-6v-35.2l-4.1 3.7-4.1 3.7-2.1-2.1-2.1-2 2.9-2.3c8.1-6.5 10.2-7.7 12.8-7.8h2.7v21zm121 14.7c-1.9.7-4.2 2.2-5.1 3.2-.9 1-6.7 13.4-12.9 27.7-15.7 36.3-15.8 36.1 7.7 46.4l14.8 6.6 6.5 12.6c7.8 15.1 8.6 16.1 11.9 15.5 4.8-.9 21.6-5.7 23.3-6.7 3-1.7 4.9-1.2 19.3 5.1 12.1 5.3 14.6 6 18.6 5.7 7.6-.8 9.3-3.2 21.9-32.2 9.7-22.3 11.2-26.4 10.7-29.8-.6-4.4-2.7-8.1-6-10.2-4-2.6-101.1-44.4-104.3-44.9-1.7-.3-4.6.2-6.4 1zm27.7 32.4c1.5.5 4.3 2.4 6 4.2 2.5 2.4 4.3 3.1 7.7 3.3 8.8.6 13.9 5.6 13.8 13.7-.1 7.5-3.8 10.6-16.2 13.7-4.7 1.1-10.1 2.5-11.9 3-1.9.5-3.6.8-3.7.7-1.9-1.9-12.7-22.8-13-25.1-.6-4.2 3.2-10.6 7.6-12.8 4.1-2.1 5.8-2.2 9.7-.7zm49.9 24.3c.3.8-1.7 6.5-4.5 12.8-2.7 6.2-5.4 12.5-6 14-1.1 2.9-2.6 3.4-4.9 1.9-1.1-.6-.2-3.4 4.2-13 3.9-8.8 5-12.1 3.8-11.5-.9.4-2.9.9-4.4 1.2-2.3.3-2.8.1-2.8-1.6 0-3.6 13.4-7 14.6-3.8zM361 235.8c-2.7.4-88.5 41.1-93.7 44.6-4.3 2.7-6.7 7.7-5.7 11.8 1.2 5.6 22.6 49.2 25.3 51.5 1.3 1.2 4.2 2.5 6.3 2.8 3.4.6 5.6-.1 17.6-5.9l13.7-6.6 12.9 3.4c9.1 2.5 13.5 3.2 15.1 2.6 1.6-.6 3.2-3.2 5.5-8.7 7.3-17.6 6.5-16.7 21.5-23.9 21.2-10 21.3-10.5 6.1-41.7-5.8-12.1-10.6-22.2-10.6-22.6 0-.4-1.4-2.1-3-3.8-3-3.1-6.3-4.1-11-3.5zm-4.7 44.5c5 10.6 5.8 13 4.6 13.8-.8.5-1.7.9-2 .9-.3 0-3-5-5.9-11.1l-5.4-11.1-1.4 3.6c-1.4 3.5-3.4 4.6-4.7 2.7-.3-.6.7-3.5 2.2-6.6 4.1-8.4 5.4-7.6 12.6 7.8zm-24.9-1.4c7.3 4.8 7.3 9.9 0 24l-5.5 10.9-5.2-1.3c-2.9-.7-8.3-1.9-12-2.6-5.7-1.1-7.3-1.9-9.8-4.6-3.4-3.9-3.8-8.6-1.3-13.9 2-4.2 5.9-6.4 11.3-6.4 3.1 0 4.4-.6 6.1-2.8 4.3-5.4 11-6.8 16.4-3.3zm117.1 105.9c-4.4.3-10 2-18.8 5.4-9.5 3.8-12.7 7.2-15.8 16.8-1.4 4.2-3.7 8.8-5.7 11.1-4 4.7-21.4 17.8-40.7 30.7-15.5 10.4-22.3 16.4-25.7 22.8l-2.2 4.3 2.1 5.8c1.1 3.2 2.4 6.7 2.8 7.8.5 1.3-.5.6-2.7-1.8-3.7-3.9-5.6-4.5-7.6-2.5-2.1 2.1-1.3 6.1 2.3 11.7 1.9 3 3.8 7.1 4.1 9 .8 4.4 2 6.9 4.7 9.8 1.1 1.3 1.6 2.3 1.1 2.3-1.6 0-1.5 5.9.1 8.4 1.1 1.7 1.3 2.6.5 3.1-.6.4-.8 2-.4 4 .3 1.8.7 6.6.8 10.6.5 13.5 4.8 39.4 7.4 44.4.8 1.6 1.6 3.9 1.8 5 .1 1.1.9 4.7 1.7 8 .9 3.3 2.1 9.1 2.7 12.9.6 3.7 1.9 8.5 3 10.6 3.2 6.2 10 11.3 18 13.4 1.4.4-.2-.6-3.5-2.2-6.4-3-11.6-7.6-14-12.2-.8-1.5-2.2-7.4-3.1-13.1-.9-5.7-2.2-11.9-2.9-13.7-1.7-4-1.1-4.1 2.2-.1 3.4 4.1 13.5 10.8 19.7 13.2 4.6 1.7 6.7 1.8 20.6 1.3l15.5-.7-3 2.3c-12.8 9.8-19.4 17.9-19.5 24 0 2.4-.4 2.8-3.2 2.9-2.5.1-2.7.3-1 .6 2.7.5 3.9 2.8 2.4 4.6-1.3 1.6.9 12.1 3.8 17.8 1.2 2.4 5 7 8.3 10.2 15.3 14.5 40.3 20.8 76.2 19.3 43.4-1.9 74.2-8.9 104.5-23.7 26.6-13 33.9-17.8 46.5-30.4 13.3-13.3 17.3-16 43.5-29.5 26.5-13.7 39.8-22 48-30 9.1-9 10.2-12.9 10.6-38.5.1-10.5 1-25.8 1.8-34 2-18.9 2-30.4.1-44.7-3.3-24.1-5.8-27.3-21.1-27.3-8.9 0-9.1-.1-12.9-3.4-2.8-2.4-4.5-5.2-6.2-10-1.9-5.5-3.2-7.5-8-11.8-10.6-9.4-29.1-18.3-38.3-18.3-3.1 0-6.6.8-8.9 1.9-4.1 2.1-9.5 7.7-10.5 10.9-.4 1.1-2.2 2.4-4.4 3-3.2 1-4.5 2.2-7.8 7.9-2.1 3.7-6.5 9.6-9.7 13.2-4.8 5.3-5.5 6.6-4.6 8 .7.9 9 9.3 18.6 18.7 9.5 9.5 17.3 17.5 17.3 17.9 0 .4-3.7.4-8.2 0l-8.3-.7-5-5.6c-2.7-3.1-7.9-8.5-11.6-12.1-3.8-3.9-7-8.1-7.6-10.1-1-3-1.1-3.2-1.2-1-.1 1.4-1.6 4.8-3.4 7.6-2.4 3.6-3.2 5.6-2.6 7.1.4 1.1 3.8 4.6 7.6 7.9 3.7 3.2 10.4 9.3 14.8 13.4 8.6 8.1 19.5 16.3 23.4 17.5 4.1 1.3.8 2.8-3.5 1.6-2.2-.6-5.9-1.1-8.2-1.1-4.7 0-7.5-1.5-15.3-8.4-2.5-2.3-7.2-6.1-10.4-8.6-7.5-5.8-11.5-11.2-11.6-15.9 0-3.2-.1-3.3-.9-1.4-.5 1.3-.6 3.3-.1 4.5 1.1 3.1-.7 8-2.8 7.6-.9-.2-2.1-1.5-2.8-2.9-.7-1.4-3.9-4.3-7-6.4-3.2-2.1-6.9-4.7-8.3-5.9l-2.5-2.1 2.4 2.8c1.4 1.5 4.4 3.8 6.7 5.2 5.3 3.1 9 7.5 7.3 8.6-.8.5-3.6-1.3-7.3-4.7-6.8-6-10.2-7.1-8.6-2.8.6 1.4 1 4.5 1 6.8 0 4.1-.1 4.3-2.6 3.8-2.3-.4-2.5-.8-1.9-3.8.8-4.4-1-7.6-7.7-14-6.9-6.7-13-9.8-16.6-8.6l-2.7.9 3 2.9c4 3.8 6.5 7.8 6.5 10.4 0 3.1-1.9 2.4-3.5-1.3-1.3-3-3.5-5.5-8-8.7-1.8-1.4-1.9-1.4-.6.2 1.1 1.5 1 2.4-.9 5.9-1.7 3.4-2.1 5.5-1.7 10.5.4 7.3-.1 8.5-3.1 7.7-2.8-.7-2.8-2.5.4-12 3.2-9.4 2.9-16.6-.9-24.6-1.3-2.9-2.8-6.3-3.4-7.7-.9-2.2-1-2-.9 1.9.1 3.9-.3 4.7-2.6 6-2.2 1.2-3.1 1.3-5.4.3l-2.7-1.3 4.9-5.1c2.7-2.8 4.1-4.8 3.2-4.5-1 .4-1.8.2-1.8-.4 0-1.8-12.9-14.6-16-15.9-3.6-1.5-8.7-8.7-10.5-14.8-2.8-9.3-10.5-13.8-26.9-15.5-6.1-.7-12.4-1.1-14.1-.9zM660.3 455c7.5 4.8 5.8 9.7-3.1 8.7-2.6-.3-9.9-1.1-16.2-1.7-11.1-1.2-11.7-1.4-15.7-4.9-2.2-2-4.2-3.9-4.2-4.4-.1-.4 7.7-.7 17.2-.7h17.3l4.7 3zm-43.4 11.5c1.7 2 3.1 3.9 3.1 4.3 0 .4-3.1.5-6.9.2-4.9-.4-7.6-1.1-9.2-2.5-1.3-1.1-2.6-2.1-2.8-2.2-.2-.1.2-.9.9-1.8.8-1 3-1.5 6.5-1.5 4.8 0 5.6.3 8.4 3.5zm19.4 7.6c12.8 1 16.3 1.6 18.3 3.1 2.9 2.3 3 4.5.3 7.7-2.1 2.6-3.1 2.6-26.6.5l-7.1-.7-6.4-6.4-6.3-6.5 6 .6c3.3.3 13.1 1.1 21.8 1.7zm-53.5 2.2c-.7.9 2.5 3.7 3.5 3 .6-.3.7-.1.3.5-.8 1.4 6 13.2 10.5 18.2 2.5 2.8 2.8 2.9 1.5.8-.9-1.5-1.6-2.9-1.6-3.1 0-.2 3.3.2 7.3.9 3.9.7 10.3 1.3 14.1 1.4 15 0 24.8 3.1 31.9 9.8 9.3 9-.6 14-11.3 5.7-2.5-1.9-6.9-5.2-9.9-7.2l-5.4-3.8h-23.8l3.1 2.8c3 2.7 3.1 2.9 1.3 4.3-2.1 1.6-11.1.9-12.8-1.1-4.1-4.9-10.5-14.1-12.9-18.7-2.7-5.1-2.8-5.7-1.5-8.6.8-1.8 2-3.2 2.7-3.2.7 0 1.5-.7 1.9-1.5.3-.9.8-1.4 1-1.1.3.2.3.6.1.9zm15.6 4.6l1.9 2-5.4-.6c-3-.3-5.6-.7-5.8-.9-.2-.2.2-1.7.9-3.4l1.2-3 2.7 1.9c1.4 1 3.4 2.8 4.5 4zm-34.9 14c-.3 1.2.7 3.5 3 6.7 7.9 11.1 20.5 29.7 20.5 30.4 0 2-3 3-6.9 2.4-3.6-.6-4.5-1.3-6.8-5.3-1.5-2.5-4-6.2-5.7-8.1-5-5.9-10.6-15.2-10.6-17.8 0-3 3-8.2 4.7-8.2.7 0 1.3-.5 1.3-1 0-.6.3-1 .6-1s.3.8-.1 1.9zm18.4 2.3l2 3.3-3.2.6c-10.4 2.1-12.5 2.1-13.7-.2-1.6-2.8.5-4.9 5.7-5.9 6.4-1.3 7-1.1 9.2 2.2zm25.9 16.3c7.5 1.9 10.2 3.9 10.2 7.5 0 2.3-.6 3.3-2.6 4.2-2.6 1.2-5.9.7-18.4-2.7-3-.8-7.8-1.5-10.6-1.5-4.9 0-5.3-.2-7.8-4-1.4-2.2-2.6-4.2-2.6-4.4 0-1.8 23.6-1.1 31.8.9zm-63.7 1.8c1.7 1.3 10.3 13.9 13.9 20.4 1.3 2.4 2.5 4.1 2.8 3.9.2-.2-.1-1.4-.8-2.5-1-2.1-.9-2.1 7.7-2.1 11.1 0 19.6 1.8 25.5 5.3 5.4 3.1 6.8 6 4.2 8.8-2.5 2.8-5.1 2.4-17.3-2.6-6-2.5-12.6-4.5-14.6-4.5-3.3 0-3.5.2-2.5 2 .9 1.7.6 2.2-2.5 3.7-3.8 1.8-4.5 3.2-1.7 3.2 7.7.1 11.8 1.3 10.7 3.1-.3.5-.1 1.1.5 1.5 1.5.9 1.2 5.1-.5 6.5-1.6 1.3-4.3 1.2-18.5-1-4.1-.7-8.1-1.7-8.8-2.3-.8-.6-.4.6.8 2.5 2 3.4 2 3.9.6 6.6-1.5 3-1.5 3 1.6 4.1 1.7.6 4.6 2.3 6.5 3.7 2.8 2.1 3.4 3.2 3.1 5.7-.3 2.8-.7 3.2-3.7 3.5-2.1.2-5.6-.7-9.5-2.4-3.4-1.5-8.3-2.9-10.9-3.2-4.3-.4-5.1-.9-7.3-4.4-3.8-6-3.9-6.5-.7-6.2 1.5.2 5.1.5 8 .7l5.2.4-7-13.3c-3.9-7.6-6.9-14.6-6.9-16.2 0-1.6 1-4.2 2.1-5.6 1.9-2.4 2.3-2.6 3.6-1.3.8.8 3.4 5.5 5.6 10.4 2.3 5 5 10.1 6 11.4 1.7 2.4 1.7 2.4.3-.7l-1.5-3.2 4.4-.7c2.5-.3 4.9-.4 5.4 0 .5.3 1.2.1 1.6-.4.3-.6 1.2-.8 2-.4 2.5.9 1.7-1.1-3.7-9.3-10-15.4-11.5-19.6-8.2-24.2 1.7-2.5 2.3-2.6 4.5-.9zm19.4 2.4c2.9 3.3 3.1 4.5.8 4.2-1.7-.2-6.2.5-10.5 1.7-1.2.4-2.2-.3-3-2.1-1.1-2.4-.9-2.9 1.2-4.6 3.7-2.8 8.6-2.5 11.5.8zm-21 16.6c.1.1 1.2 1.7 2.4 3.5 1.3 1.8 2 3.6 1.7 3.9-.4.4-3.3.9-6.6 1.1-5.6.4-6 .3-7.1-2.2-1.1-2.3-.9-2.9 1.2-5.2 1.9-2 3-2.4 5.3-2 1.6.4 3 .7 3.1.9zm-15.6 21.2c1.1 2 2.1 4 2.1 4.6 0 .5-2.9.7-6.7.5-8.8-.6-10-2.4-4.6-7.1 4.4-3.8 5.9-3.5 9.2 2zm-17-3.1c.7.8 4.3 7.7 8.1 15.2 6.7 13.4 7.2 15.2 3.5 15.4-.5 0 .2 1 1.7 2.1 3.4 2.5 5.5 8.3 3.8 10.4-2.8 3.4-9.7.7-20.5-8-2.2-1.7-6.5-4.4-9.5-5.9-6.9-3.5-8.7-5.1-9.3-8.2-.3-2 .2-2.8 2.4-3.9 4.1-2.2 5.1-1.9 11.7 3 3.4 2.4 8.9 5.8 12.4 7.5 6.1 3 6.1 2.2 0-1.1-2-1.1-4.1-3.9-6.1-8-1.7-3.5-4-7.8-5.1-9.4-2.2-3.4-2.5-5.7-1-8.6 1.3-2.3 6.2-2.6 7.9-.5zM434.5 600c-.3.5-1.2 1-1.8 1-.7 0-.6-.4.3-1 1.9-1.2 2.3-1.2 1.5 0z"/><path d="M566 553c.8.5 2 1 2.5 1 .6 0 .3-.5-.5-1s-1.9-1-2.5-1c-.5 0-.3.5.5 1zm-242.3-9.9c.7.7 1.5 1 1.8.7.3-.3-.2-.9-1.2-1.2-1.4-.6-1.5-.5-.6.5zM730.8 577c-1.4 12.2-8.6 27.8-16.3 35.5-7.6 7.5-17 12.7-40.1 22-22.2 9-29.8 13.2-44.8 24.7-23.7 18.4-36.6 27.8-43.5 31.8-14.1 8.2-35.6 15.7-56.6 19.9-34.4 6.8-47.6 6.8-83.9-.3-26.7-5.2-33.5-7.2-41.1-12-9.9-6.4-17.3-19.7-18.4-33.1-.6-7-.8-7.6-1.5-4.4-1.9 8.6 4.8 26.4 13.1 34.6 8.3 8.4 22.8 13 60.8 19.4 17.2 2.8 20.4 3.1 34 2.6 29.3-1 65.2-10 90.3-22.6 10-5 17.9-10.5 37.6-25.8 26.3-20.6 33.5-24.9 57.1-34.3 22.4-8.9 34.2-16 41.3-24.9 7.3-9.1 13.6-25.8 13-34.3l-.3-4.3-.7 5.5zm-391.5-.2c-.9 1.5-.8 1.9.3 1.9.8 0 1.4-.9 1.4-1.9 0-1-.1-1.8-.3-1.8-.1 0-.7.8-1.4 1.8zm2.7 5.2c0 .5.5 1 1.1 1 .5 0 .7-.5.4-1-.3-.6-.8-1-1.1-1-.2 0-.4.4-.4 1zm-10.4 4.7c-.6 1.4-.5 1.5.5.6.7-.7 1-1.5.7-1.8-.3-.3-.9.2-1.2 1.2zm8.1 0c-1.3 1.3-.7 3.1 1.3 3.6 1.1.3 1.7.1 1.4-.4-.3-.6 0-1.8.7-2.7 1-1.2.8-1.2-.9.2-1.9 1.7-2.2 1.7-1.6.3.6-1.8.2-2.2-.9-1zm6.5 11.4c.2.6.8 1 1.3 1s1.1-.4 1.3-1c.2-.6-.4-1.1-1.3-1.1s-1.5.5-1.3 1.1zM292 619.4c0 .2.7.9 1.5 1.6.9.7 1.5.8 1.5.2 0-.5-.7-1.2-1.5-1.6-.8-.3-1.5-.4-1.5-.2z"/><path d="M274.3 625.2c-6.1 8.2-7.4 13-5.9 21.5.9 4.8 4.4 8.3 8.2 8.3 1.4 0 3.2 1.1 4.5 2.9 3.3 4.5 9.3 7.4 13.7 6.6 2-.3 5.2-.8 7-1 2.3-.3 5.5-2.3 10-6.2 3.6-3.2 7.5-6.3 8.6-6.9 1.2-.5 2-1.8 1.8-2.7-.2-.9.3-1.7.9-1.7.7 0 .9-.3.6-.6-.4-.4-1.2-.2-2 .4-.7.6-1.8.7-2.6.3-1.1-.7-1.1-1.6-.2-4.4.7-1.9 1.8-4.1 2.6-4.7.8-.7 1.2-1.6.9-2.2-.3-.5-1.1-.5-1.9.2-.9.8-1.5.8-2 0-.4-.6-.1-.9.6-.8.7.2 1.4-.6 1.6-1.7.3-1.2.1-1.6-.4-.9-1 1.3-4.3 2.6-4.2 1.6.3-2-.2-3.3-1.1-2.7-.5.3-1 .1-1-.4 0-.6.5-1.1 1-1.1.6 0 1-.7 1-1.5 0-1.1-1.2-1.4-4.7-1.3-2.7.1-5.3.5-5.9 1-.7.5-1.7.1-2.5-.9-.9-1.1-1-1.4-.1-.9 1.7 1 1.5-.9-.3-2.4-1.7-1.4-3.9-.4-2.8 1.3.4.7 0 .6-1-.2-1.8-1.5-2.3-2.6-.7-1.6.6.3.7-.1.4-.9-.3-.9-1-1.6-1.6-1.6-.5 0-.7.4-.4.9.9 1.4-2.4 3.5-5.8 3.6-1.8.1-4.4-.8-6.2-2.2-1.7-1.3-3.8-2.3-4.6-2.3-.9 0-3.3 2.4-5.5 5.2zm28.3 3.6c.2 2 1.7 4.1 2.5 3.6 1.5-.9 2.2 2.5.9 4.1-1.1 1.3-1.4 1.3-2.5-.2s-1.4-1.4-2.6 1.3c-.8 1.6-2.3 3-3.4 3.1-2 .3-2 .3 0-.6 1.1-.5 1.6-1 1.1-1-.5-.1.1-1.2 1.4-2.6 1.2-1.3 2.7-2.2 3.1-1.9 1.4.8 1.1-.4-.7-3.1-.9-1.4-1.3-2.5-.9-2.5s.1-.8-.6-1.8c-1.1-1.5-1.1-1.5.1-.4.8.7 1.5 1.6 1.6 2zm-3.1-.8c.3.6-.1.7-.9.4-1.8-.7-2.1-1.4-.7-1.4.6 0 1.3.4 1.6 1zm9.5.7c0 .5-.5 1.5-1 2.3-.7 1.2-.9 1-.7-.8.1-1.9 1.7-3.3 1.7-1.5zm4.8 10.8c-.2 1.2-.6 1.1-1.6-.6-.8-1.1-.9-1.8-.3-1.4.6.3 1.1 0 1.2-.7 0-1 .2-1 .6-.1.2.7.3 2 .1 2.8zm-7.9 6.1c.4-.3.8.1.8.9 0 1.1-.4 1.2-1.4.4-.7-.6-1.3-1.7-1.2-2.3 0-.7.2-.6.6.2.2.6.8 1 1.2.8zm12.2 3.7c-1 .9-1.1.8-.5-.6.3-1 .9-1.5 1.2-1.2.3.3 0 1.1-.7 1.8zm22-27.6c.7 1.2 1.5 2 1.8 1.7.3-.2-.3-1.2-1.3-2.2-1.7-1.6-1.8-1.6-.5.5zM318 626c.6 1.1 1.3 2 1.6 2 .2 0 0-.9-.6-2s-1.3-2-1.6-2c-.2 0 0 .9.6 2zm24.2 3.1c-.9 1.3-1.9 1.8-3 1.4-2.2-.8-.8.5 2 1.9 3.1 1.6 3.8 6.6.9 6.6-1.2 0-2.1.7-2.1 1.5 0 1.7 1.6 2 2.5.6.3-.6 1.4-.9 2.4-.8 1.5.1 1.7.6 1.1 2.8-.5 1.5-.4 3.1 0 3.5.5.5 1.4 4.7 1.9 9.3.6 4.7 1.7 9.2 2.6 10.1.8.9 1.5 2.4 1.5 3.3 0 3.6 2.4 6.6 6.6 8.2 3.2 1.2 4.8 1.4 6.3.6 1.1-.6 3.1-1.1 4.5-1.1s3.5-.5 4.8-1c2.2-1 2.3-1.6 2.3-11.4 0-6.1.5-10.9 1.1-11.7.6-.8 1.4-2.4 1.8-3.5.5-1.7 0-2.4-2.6-3.5-1.8-.7-3.8-1.4-4.5-1.5-.6-.1-2.2-1.1-3.4-2.3-1.5-1.4-3-1.8-5-1.4-2.5.5-2.9.2-3.4-2.3-1.6-6.8-1.5-6.8-3.1-4.6-1.1 1.6-2.2 1.9-5.1 1.5-2.1-.2-4.5-.5-5.3-.5-2.2-.1-4.1-1.9-3.3-3.1.3-.6.1-.7-.5-.3-.7.4-1.2.3-1.2-.3 0-.5.5-1.1 1.2-1.3.6-.2.9-.9.7-1.6-.3-.8-.9-.4-1.7.9zm-18.6-.3c-.4.7-1.2.9-1.8.6-.7-.4-.8-.2-.4.4.4.6 1.4.9 2.4.6 1.4-.5 1.4-.3-.2 1-1.1.9-1.7 1.9-1.3 2.2.3.4 1.3-.1 2.2-1 1.6-1.6 3.8-2 8.4-1.6 3 .2 1.9-1.6-1.4-2.2-1.3-.3-2.2-.1-1.9.3.3.5-.6.9-2 .9-1.3 0-2.6-.5-2.8-1.2-.3-.9-.6-.9-1.2 0zm344 20.4c-.8 1.3-1.4 1.6-1.2.8.1-.8.1-1.2-.1-.7-.3.4-1 .4-1.6 0-.7-.4-.6 0 .1 1 .8.9 1 2.2.6 2.8-.4.7.4.4 1.8-.7 1.4-1 2.4-2.1 2.3-2.4-.2-.3.5-.6 1.5-.7 1.1-.1 2.2.2 2.5.8.4.5-.2.6-1.1.2-1.1-.4-1.5-.2-1.1.4.4.6-.3 2.4-1.4 3.9l-2.1 2.9 2.4-2.5c2.3-2.5 8.8-4 8.8-2 0 .5.7.7 1.7.3 1.3-.5 1.2-.8-.8-1.6-1.3-.6-2.8-.9-3.2-.8-.4 0-1.7-.8-2.9-1.9-2.8-2.6-4.2-2.5-6.2.2zm15.8 5.8c.1.8-.8 1.5-1.9 1.5-1.3 0-2.3 1-2.9 3-.5 1.6-1.9 5.2-3.2 7.8-1.9 3.9-2.1 4.9-.9 5.3.8.3 1.9.3 2.5-.1.5-.3 1 .2 1 1.4 0 1.1-.4 2.3-1 2.6-.6.4-.7-.1-.3-1.2.6-1.7.5-1.7-1.3-.1-1 .9-3.2 1.8-4.9 1.9-1.6.2-3.5.7-4.1 1.1-.6.4-1-.3-1-2 .1-2.2-.3-2.7-2.4-2.7-1.5 0-2.4.5-2.2 1.3.1.8-.2 1.1-.8.7-.8-.5-.8-1.1-.1-1.9.6-.7.7-1.6.3-2-.4-.4-.7-1.3-.7-1.9 0-1.6-24.8-1.4-25.3.2-.2.6-1.1 1.1-1.9 1.1-1 0-1.4.6-1 1.9.3 1.4 0 1.7-1.2 1.4-2-.5-12.4 7.3-11.6 8.7.3.5-.8 2.4-2.5 4.3-2.1 2.4-2.7 3.7-1.8 4 .8.4.7.6-.4.7-1 .2-2.4.3-3 .4-.7.1-2.1-.1-3-.6-.9-.4-1.9-.4-2.2.1-.8 1.2 4.3 5.3 5.5 4.5.5-.3.9-.2.9.3 0 .4 1.9 1.4 4.2 2.1 2.3.7 5.5 2.4 7.1 3.8 1.5 1.3 3.3 2.4 3.8 2.4s.9.5.9 1.1c0 1.4 2 3.2 5.2 4.6 2.2 1 2.7.9 3.3-.5.6-1.5.9-1.3 2.1.8 1.1 1.8 1.4 1.9.9.5-.5-1.6-.1-1.5 2 .7 1.4 1.6 3.1 2.8 3.8 2.8.7 0 2.4.6 3.9 1.4 1.5.8 6.9 2.9 12 4.6 5.1 1.8 10.4 3.8 11.8 4.5 1.4.7 3.9 1.9 5.5 2.7 3.7 1.8 13 2.1 21 .8 3.3-.6 6.9-1.1 8.1-1.3 1.1-.1 3.5-1.9 5.3-3.9 1.9-2.1 4.3-3.8 5.9-4 1.8-.2 2.8-1 3.2-2.8.4-1.6 1.4-2.6 2.8-2.8 1.2-.2 2.2-1 2.2-1.8s.4-1.4.9-1.4c.6 0 1.1-1.9 1.3-4.3.3-3.7.6-4.2 2.5-4 1.6.2 2.1-.2 1.7-1.1-.9-2.3 1.3-5.3 4.3-5.9 2.4-.5 3-1.3 4.1-5.4.7-2.6 1.5-5.7 1.8-6.9.4-1.5-.2-2.4-3-3.9-3.4-1.8-3.5-2-2.1-4.2 1.9-2.9 1.9-3.9 0-2.3-1.3 1-1.5.9-1.5-1 0-1.3-.3-2-.7-1.6-.9.8-1 1.4-1.2 5.1-.1 3.1-.9 3.1-4.4 0-3.4-3.2-3.4-4.5-.1-8l2.6-2.8-4.1.7c-2.2.3-4.2.2-4.5-.3-.3-.4-2.7-1.1-5.3-1.4-2.8-.3-5.2-1.2-6-2.3-1.1-1.4-1.7-1.5-3.8-.6-2.8 1.3-5.1.7-5.9-1.4-.3-.8-1.7-1.4-3-1.4-1.4 0-3.4-.9-4.4-2.1-2.5-2.6-13-3.4-12.8-.9zm-36.7 15.4c.4.4.1.6-.7.4-.8-.2-1.4.3-1.2.9.1.7-.3 1.3-.9 1.3-.5 0-.8.4-.5.9.9 1.4-2.2.7-3.7-.9-.9-1-.9-1.1.1-.6.6.4 1.2.2 1.2-.3 0-.6-.5-1.1-1.2-1.1-.6 0-.8-.3-.5-.6.4-.4 1.4-.1 2.2.6.9.7 1.5.9 1.4.4-.4-2.3 1.9-2.9 3.8-1zm-9.1 1.1c.4.8.3 2.3 0 3.2-.6 1.5-.8 1.5-1.6.3-1.3-2-1.2-5 0-5 .6 0 1.3.7 1.6 1.5zm20.1 1c0 .8-.4 1.2-.9.9-.5-.3-.6-1-.3-1.5.9-1.3 1.2-1.1 1.2.6zm35.8-.5c-.3.5-1.2 1-1.8 1-.7 0-.6-.4.3-1 1.9-1.2 2.3-1.2 1.5 0zm-31.4 5.5c.9-.2 1.6.3 1.6 1.1 0 .9-.4 1.1-1.2.4-.7-.6-1.6-.6-2.3 0-.7.6-1 .7-.7.4.3-.4-.1-1.4-.8-2.3-1-1.4-1-1.4.3-.5.8.6 2.2 1 3.1.9zm33.9 5.7c0 1.7-.3 1.8-1.5.8-.8-.7-1.5-1.9-1.5-2.6 0-.8.6-1.1 1.5-.8.8.4 1.5 1.5 1.5 2.6zm-36.1 9.9c-1.4 2.6-3 3.3-4 1.8-.5-.8-.2-2 .7-3 .8-.8 1.1-1.9.7-2.4-.5-.4.2-.2 1.4.6 1.6 1 1.9 1.7 1.2 3zm-4.7 4.2c2.2 1.9 3.4 2.4 4.3 1.7.9-.8 1.7-.3 2.9 1.4 1.9 3 2 4 .4 3-1-.6-1-.4 0 .8 2.1 2.7-.8 3.2-6.8 1.3-1-.3-2.5.1-3.3 1-2.1 2-3 .5-3.4-5.3-.2-3.5 0-4.3 1.2-3.8 2.1.8 2.9-1.1.9-2.2-1.1-.6-1.4-1.4-.9-2.3.7-1.1.9-1 1.3.1.2.8 1.8 2.7 3.4 4.3zm2.2 14.9c-.4.6 0 1.4.7 1.9.9.6.1.9-2.4.7-2.1-.1-4.1-.6-4.4-1.1-.2-.4-1.2-.2-2 .5-1.5 1.2-1.5 1.1-.2-1 1.5-2.4 2.4-2.7 3.3-1.3.9 1.3 4.2.6 3.8-.9-.1-.6.2-.9.8-.5.6.3.7 1.1.4 1.7z"/><path d="M656.9 692.7c-1.3 1.6-1.2 1.7.4.4.9-.7 1.7-1.5 1.7-1.7 0-.8-.8-.3-2.1 1.3zm-3.1 7.8c.4 2.1.1 2.4-1.4 1.8-1.6-.6-1.7-.5-.4.9.8.8 2 1.4 2.6 1.1 1.1-.4.6-6.3-.6-6.3-.4 0-.5 1.1-.2 2.5zm21.7-41.6c-.3.5-.2 1.2.3 1.5.5.3.9-.1.9-.9 0-1.7-.3-1.9-1.2-.6zm-133 59.4c-4.4 1.1-8.2 2.4-8.3 2.9-.2.4-.7.6-1.2.3-.4-.2-5.4.4-11.1 1.5-5.7 1.1-11.6 2-13.1 2-1.6 0-2.8.3-2.8.7 0 .5-5.2.7-11.6.5-14-.4-15-.1-13.2 3.2 1.3 2.4 11.8 11.6 13.2 11.6.4 0 2.4 1.8 4.3 4 2.2 2.4 4.5 4 5.8 4 1.2 0 3.4.9 4.9 2.1 1.4 1.1 4.1 2.5 6 3 1.9.5 3.7 1.9 4.3 3.2 1.4 3 7.9 4.5 16.9 4.1 6.6-.4 10.5-1.9 13.1-5.3 1.8-2.3 1.6-2.9-1.3-5.6-1.9-1.8-4.1-2.5-9.2-3-7.1-.6-17.2-3.1-17.2-4.3-.1-2-5.5-6.6-7.9-6.7-1.6 0-2.7-.6-2.9-1.7-.3-1.4.7-1.6 6.5-1.6 10 0 13.7-.3 15-1.4.7-.6 2.4-.7 3.8-.4 1.7.4 2.5.2 2.5-.7 0-2 6.2-7.5 9-7.9 1.4-.2 2.6-1 2.6-1.8.1-.8.2-2 .3-2.7 0-.6.9-1.4 1.9-1.6 1.4-.4 1.3-.5-.3-.5-1.1 0-5.6.9-10 2.1zm64 16.8c-.4.6-.5 1.2-.2 1.5.2.3.7-.2 1-1.1.7-1.7.1-2-.8-.4zm-9.5 1.8c0 .5.5 1.3 1 1.6.6.3 1 .2 1-.4 0-.5-.4-1.3-1-1.6-.5-.3-1-.2-1 .4z"/><path d="M546.6 738.3c.3 1 .9 1.5 1.2 1.2.3-.3 0-1.1-.7-1.8-1-.9-1.1-.8-.5.6zm-121.6.6c0 .6.4 1.3 1 1.6.6.3.7-.1.4-.9-.7-1.8-1.4-2.1-1.4-.7zm47 .6c0 .8.7 1.5 1.5 1.5s1.5-.4 1.5-.9-.7-1.1-1.5-1.5c-.9-.3-1.5 0-1.5.9zm-144.1 3.9c2.6 2.8 3.1 3.1 3.1 1.7 0-.5-1.2-1.7-2.7-2.6l-2.8-1.8 2.4 2.7zm-4.8-1.1c.2.1 1.3.9 2.4 1.7 1.9 1.4 1.9 1.4.6-.3-.7-.9-1.8-1.7-2.4-1.7-.6 0-.8.1-.6.3zm370.9 1.1c0 .2.7.7 1.6 1 .8.3 1.2.2.9-.4-.6-1-2.5-1.4-2.5-.6zm-105 5.7c0 1.7-.4 2.8-1 2.4-.5-.3-1 0-1 .9 0 .8.6 1.7 1.3 2 1 .5 1 .7 0 1.2-.7.3-1.3 1.3-1.3 2.2 0 1.5.2 1.5 1 .2.6-.9 1-1 1-.3 0 .6.3 2 .6 3 .5 1.5.4 1.5-.5.3-.9-1.3-1.1-1.3-1.1.1 0 .9.7 2.2 1.5 2.9.8.7 1.5 2.2 1.5 3.3 0 1.1.3 1.8.6 1.4.4-.3 1.4.2 2.3 1.2 1.9 2.2 7.8 4.3 9.5 3.4.7-.4.8-.3.1.5-.5.5-1.9 1.3-3 1.6-1.1.3-.6.3 1 0 1.7-.3 5-.9 7.5-1.3 4.9-.7 7.3-1.8 6.6-3-.3-.4 1.7-.5 4.4-.4 2.8.2 5.1-.1 5.5-.7.4-.6.5-1.3.4-1.5-.4-.3-8.3-1.2-15.9-1.8-5-.4-9.3-2.4-8.4-3.9.4-.7.4-1-.1-.6-1.1 1.1-7-4.1-7.1-6.3-.1-1-.9-3-1.8-4.3-.9-1.4-1.6-3.2-1.6-4.1 0-.8-.4-1.5-1-1.5-.5 0-1 1.4-1 3.1zm113.8-2.4c.6.2 1.8.2 2.5 0 .6-.3.1-.5-1.3-.5-1.4 0-1.9.2-1.2.5zM466.5 748c-1.2.4-2.7 1.5-3.4 2.4-1.2 1.4-1 1.9 1.1 3.9 1.4 1.3 3 2.1 3.6 1.9 1.7-.5 1.5-2.2-.2-2.2-1.6 0-2.9-2.7-2-4.1.4-.6 1.1-.6 1.9.1 1.6 1.4 3.5.5 3.5-1.6 0-1.5-1.4-1.7-4.5-.4zM336 750c0 .5.5 1 1.1 1 .5 0 .7-.5.4-1-.3-.6-.8-1-1.1-1-.2 0-.4.4-.4 1zm81.3 7.4c.1 4.7.6 8.4 1.2 8.3.9-.2 1 .4 1.3 5.1.1 1.4.6 2.1 1.3 1.6.8-.4.9.1.4 1.7-.3 1.4-.3 1.9.2 1.2s1.7-1 2.8-.8c1.1.2 2.4.4 2.8.4.5.1.5.5.2 1.1-.3.6.1.7.9.4.9-.3 1.6-.1 1.6.5 0 1.3 8.1.4 12.9-1.5 1.8-.8 6.2-1.3 9.7-1.2 3.5.1 6.7-.2 7.1-.7.5-.4-.4-.6-1.9-.3s-3.3.1-4-.4c-1-.7-.8-.8.5-.4.9.3 1.7.1 1.7-.4 0-.6-1.2-1-2.7-1.1-2.7 0-8.8-.6-14.3-1.3-8.2-1.1-15.4-6.3-16.4-12.1-.4-1.8-1.3-3.8-2.1-4.5-.8-.7-1.5-1.9-1.5-2.6 0-.8-.4-1.4-1-1.4-.5 0-.8 3.5-.7 8.4zm218.7-6.3c0 .4.7 1.2 1.6 2 1.3 1 1.7 1 2.5-.2 1.3-2.1 1.1-2.4-1.6-2.4-1.4 0-2.5.3-2.5.6zm32.1 2.8c-.8.5 1.8 1.3 6.4 2 4.2.6 8.6 1.6 9.7 2.2 1.5.8 1.9.8 1.4 0-.4-.6-.1-1.1.6-1.1.9-.1.8-.3-.3-1-.8-.5-4.6-1.2-8.3-1.5-3.8-.3-7.2-.7-7.5-1-.4-.2-1.3 0-2 .4zm-324.1.4c0 .3 1.1 1.2 2.4 2 2.1 1.4 2.5 1.5 3 .1.3-.8.1-1.2-.4-.9-.5.3-1.9.1-3-.5s-2-.9-2-.7zm136 1.7c-2.1.7-2.1.8-.5.9 1.1 0 2.7-.4 3.5-.9 1.8-1.1.5-1.1-3 0zm8.6-.1c.6.7 6 1.9 11.9 2.7 6 .8 11.7 2 12.7 2.5 1.4.7 2 .6 2.4-.6.3-.8 1-1.2 1.5-.9.5.3.9 0 .9-.6 0-.7-.6-1-1.4-.7-.7.3-4.7.1-8.8-.4-4.1-.5-9.5-1.1-11.9-1.3-2.4-.1-5.3-.7-6.4-1.1-1.5-.6-1.7-.5-.9.4zm208.9.1c-.3.6.1.7.9.4 1.8-.7 2.1-1.4.7-1.4-.6 0-1.3.4-1.6 1zm-55.1 1.9c-1.4 1.3-1.5 1.3-.8.1 1-1.9-5.7 3.1-7 5.3-.6.9-.7 2-.3 2.4.5.4 1.2.2 1.6-.6.5-.7 1.1-1.2 1.5-1.2 1.9.3 2.7 0 2.2-.8-.3-.5.1-1.2 1-1.5 1-.4 1.3-.2.7.7-.4.6.7.1 2.4-1.3 1.8-1.4 3.2-3 3.2-3.6.1-1.6-2.6-1.3-4.5.5zm48.6-.4c-1.4.8-2 1.4-1.4 1.5.5 0 1.9-.7 3-1.5 2.4-1.8 1.6-1.9-1.6 0zm12.8-.8c.6.2 1.8.2 2.5 0 .6-.3.1-.5-1.3-.5-1.4 0-1.9.2-1.2.5zm-233.3 3.9c-1.1.8-2.5 1.2-3.3.9-.7-.2-1.1-.1-.8.4.3.5-.5 1.6-1.7 2.4-2.3 1.5-3.3 4.7-1.5 4.7.4 0 .8-.5.8-1.2 0-.6.3-.8.7-.5.3.4 1.3.1 2.1-.6 1.3-1 1.4-.8.8 1.3-.7 2.3-.6 2.2 1.2-.5 1-1.7 2.9-3.9 4.1-4.9 3.7-3.4 1.7-5.1-2.4-2zm46.9 1c-1.8 1.4-1.8 1.5.4.4 1.2-.6 2.2-1.3 2.2-1.5 0-.8-.5-.6-2.6 1.1zm112.2 5c-.5 1.4-.4 1.5.9.4 1.7-1.4 1.9-2 .6-2-.5 0-1.2.7-1.5 1.6zM459 768c-.8.5-1.2 1.2-.9 1.5.4.3 1.2-.1 1.9-1 1.4-1.7 1.1-1.9-1-.5z"/><path d="M594.8 773.7c.6.2 1.8.2 2.5 0 .6-.3.1-.5-1.3-.5-1.4 0-1.9.2-1.2.5zm-171 3c.7.3 1.6.2 1.9-.1.4-.3-.2-.6-1.3-.5-1.1 0-1.4.3-.6.6zm139.8 27.2c-.3.4-2.3 1.1-4.3 1.5-4.9.8-12.9 4.6-16.9 7.9-10.1 8.5-10.1 27.5-.2 35.1 4.4 3.3 13.7 7.6 16.6 7.6 4.6 0 15.1 3.3 16.9 5.2 1.7 1.9 1.7 2.1-.6 3.9-3.8 3.1-6.3 2.5-9.4-2.4l-1.8-2.8-14.7.3-14.7.3.2 4.2c.4 9 8 17.9 18 21 8.6 2.6 25.6 2.4 34.9-.5 13.1-4 19-10.8 20.1-23.2.7-7.7-1.5-13.6-6.9-18.5-4.9-4.5-8-5.9-22.3-10-7.2-2.1-11-3.7-11-4.6 0-2.5 6.4-2.3 9.9.3 2.7 2 4.5 2.3 14.4 2.6 13.8.5 15.5-.4 14-7.1-1.3-6-4.2-10.1-9.5-13.7-4.3-2.8-12.8-6-16-6-.7 0-1.3-.5-1.3-1 0-1.2-14.7-1.4-15.4-.1zm-350.6 2c0 2.4 3.1 5.2 3.7 3.3.3-.6 1.4-1.2 2.6-1.2 2 .1 2.1.2.5 1.4-2.4 1.8-2.3 3.3.3 4.6 1.9 1.1 2 1 .9-.9-.9-1.7-.7-2.5 1-4.3 1.8-1.9 2.3-2.1 4.1-1 1.1.7 2.4 1 2.9.7.5-.3 1.2 0 1.6.7.4.7.4 1 0 .6-.4-.3-1.7.3-2.8 1.4-2.3 2.3-1.1 4.6 1.9 3.3 1-.5 2.5-.7 3.2-.6 1.3.2 1.3 0 .2-1.3-3.5-4.3 3.2-3 8.6 1.6l3.8 3.2-2.9-3.1c-3.5-3.9-9.9-6.7-19.7-8.7-9.4-2-9.9-2-9.9.3z"/><path d="M209.6 805.9c-.4.5 0 1.2.6 1.4.8.3.6.6-.4.6-1 .1-1.8-.4-1.8-1 0-3.4-18.8 2.9-23.2 7.8-3.4 3.7-5.8 10.7-5.8 16.9 0 8.5 2.9 13.9 10.1 18.2 3.2 1.9 5.5 2.8 5.8 2.1.2-.6 1.3-.1 2.7 1.2 1.3 1.2 2.4 1.7 2.4 1.1 0-.7-.9-2-2-2.9-1.5-1.3-1.7-2-.8-3.1.7-.8 1.1-2.7 1-4.3-.1-1.6.2-2.9.7-2.9.5 0 .7 1 .4 2.1-.5 1.8-.3 2 1.8 1.4 1.6-.4 1.9-.3 1.1.3-2.1 1.4.5 9.4 3.3 10.2 1.1.3 2.9 1 10 3.7 5.3 2 6.6 4.1 4 6.7-2.7 2.6-7.1 2-10.2-1.4-2.6-2.9-2.8-3-12-3-6 0-9.2.4-8.8 1 .3.5.1 1-.4 1-.6 0-1.1-.5-1.1-1 0-.6-2.1-1-4.6-1h-4.6l.7 3.7c1.1 6 5 12.6 9.6 16 2.3 1.8 4.7 3.3 5.2 3.3.6 0-.5-1-2.4-2.3-2.1-1.4-3.3-3-3.1-4.1.2-1.2-.2-1.6-1.4-1.4-1.2.2-2.6-1-4.1-3.7-2.2-3.9-3-7-1.5-6.2.4.2 1.5-.4 2.5-1.5 1.8-1.9.9-2.6-1-.7-.6.6-1.6.8-2.2.5-2.2-1.4-1-2.6 2.3-2.6 2.5 0 3.5.5 3.9 2 .3 1.1 1 2 1.5 2s1.2-.9 1.5-2c.3-1.1 1-2 1.7-2s.9.8.5 2c-.4 1.1-.2 2 .4 2 .6 0 1.1-.6 1.1-1.3 0-.8.7-1.4 1.5-1.4.9 0 1.4.5 1.1 1.1-2.1 5.2-2.1 5 .6 3.2 1.4-.9 3-1.6 3.4-1.5 2.1.4 3.5-.2 2.9-1.1-.4-.6-1.1-.7-1.7-.4-.7.4-.8.2-.4-.5.4-.6 1.2-.9 1.7-.6.5.4.9.1.9-.4 0-2.2 3.1-1 6.4 2.3 2.7 2.6 4 3.3 6.3 2.9 2-.3 2.4-.2 1.4.5-.9.7-1 1.2-.2 1.6 1 .7 1.6-.6 1.2-2.8-.1-.5.5-.6 1.4-.2.9.3 1.3.2 1-.3-.3-.5-.1-1.2.5-1.6 1.5-.9 1.2-3.6-.7-5.7-.9-1-1.3-2.1-.9-2.6.4-.4 1.6.3 2.6 1.5 1 1.3 2 2.3 2.3 2.3 1.2 0 0-2.7-2.1-4.8-1.3-1.3-2-2.8-1.6-3.3.4-.8.1-.8-1.2-.1-1.7.9-1.9.6-2.1-2.4-.1-3 0-3.2 1.3-1.9.8.8 2.2 1.1 3.1.8 1.3-.5 1.5-.2 1.1 1.5-.9 3.3-.1 2.6 1.9-1.6.9-2 2.2-4 2.7-4.5.7-.4.8-1 .1-1.5-.5-.4-1-1.4-1-2.2 0-.8-.4-1.4-1-1.3-.5 0-1.6-.5-2.3-1.3-1-1.1-.6-1.3 2.6-1 2.2.2 4.4.6 5 1 .6.3 1.4.1 1.8-.5.4-.8.3-.9-.4-.5s-1.2.3-1.2-.2-3.9-1.9-8.7-3.2c-10.2-2.6-12.3-3.6-12.3-5.4 0-3.1 6.1-3.4 10.8-.6 1.8 1.1 3.6 2 4 2 .4 0 0-.5-.8-1-1.7-1.1-2.3-5-.6-4.7 1.4.3 1.5-3.2.2-5.5-.7-1.1-1.4-1.4-2.1-.8-.6.5-2 .7-3.1.4-2.2-.6-5.1-4.4-3.4-4.4 1.6 0 1.1-1.9-1-3.7-1.1-1-2-2.5-2-3.5 0-1.9-1.5-2.4-2.4-.9zm-4.5 2.7c-1.8 1.3-2.5 1.4-3.4.4-.9-1-.8-1.2.5-.7 1 .3 2 .2 2.3-.3.4-.6 1.1-1 1.8-1 .6 0 .1.7-1.2 1.6zm-5.1.8c0 .3-.4.8-1 1.1-.5.3-1 .1-1-.4 0-.6.5-1.1 1-1.1.6 0 1 .2 1 .4zm12.5 2.7c1.1 1.6.1 1.9-1.3.3-.7-.8-.8-1.4-.3-1.4s1.3.5 1.6 1.1zM209 819c0 .5-.2 1-.4 1-.3 0-.8-.5-1.1-1-.3-.6-.1-1 .4-1 .6 0 1.1.4 1.1 1zm-11 2.1c0 .6-.4.7-1 .4-.5-.3-1-1.1-1-1.6 0-.6.5-.7 1-.4.6.3 1 1.1 1 1.6zm9.5 3.8c.3.8.1 1.9-.5 2.5-.7.7-1 .6-1-.2 0-.7-.6-1.2-1.2-1.1-3.2.4-4.1-.1-2.9-1.5 1.5-1.8 4.9-1.6 5.6.3zm13.5.1c0 .5-.9.6-2 .3s-1.7-.9-1.5-1.4c.7-1 3.5-.1 3.5 1.1zm-20 5.2c0 1.2-2.8 1-3.5-.2-.9-1.5-2.7-.1-2.1 1.6.3.8.1 1.4-.4 1.4s-1.4.9-2 2.1c-1.1 1.9-1 2 .9.9 1.8-.9 2.1-.8 2.1 1 0 1.2-.5 1.8-1 1.5-2.1-1.3-4.3 2.5-3.7 6.6.6 4.6-.5 5-4.8 1.4-2.3-1.9-2.6-2.4-1.2-2.5.9 0 1.7-.5 1.7-1 0-.6.7-1 1.6-1 1.1 0 .3-1.2-2.2-3.5-2.2-1.9-4.2-3.5-4.5-3.5-.4 0-.9-.7-1.2-1.4-.4-1-.1-1.3.8-1 .7.3 1.6 1.2 1.9 2 .3.8 1.2 1.4 1.9 1.4 1 0 1.3-1 1.1-3.4-.3-2.1.1-3.8 1.1-4.6.9-.8 1.5-.8 1.5-.2 0 .6-.4 1.4-1 1.7-1.6 1-1.1 2.5.6 1.8 1.4-.5 1.4-.3.3 1.5-.7 1.2-1 2.5-.6 2.9 1.2 1.1 2.5-1.6 2.3-4.7-.2-2.5 0-2.7 2.1-1.9 2.3.9 3.9-.3 2.8-2.1-.3-.5.8-.2 2.4.8 1.7.9 3.1 2 3.1 2.4zm9.2 2.2c.9 1.7.9 1.7-1.6.1-3-2-3.2-2.4-1-2.1.9.1 2.1 1 2.6 2zm1.8 7.7c0 1.5.5 3.1 1 3.4.6.4.7 1.1.4 1.7-.5.7-1.2.5-2-.6-.7-1-1.7-1.5-2.3-1.1-1.8 1.1-1.2-1.7.7-3.1 1.6-1.2 1.5-1.3-.8-1.5-1.4-.1-3.3-.1-4.2 0-1 .1-1.8-.3-1.8-.8 0-1 1.7-1.5 4.8-1.4.6.1 1.2-.3 1.2-.8s-.7-.9-1.6-.9c-.8 0-1.2-.5-.9-1.1 1.2-1.8 5.5 3.1 5.5 6.2zm2.5-6.2c.3.5.1 1.2-.4 1.5-.5.3-1.1-.1-1.5-.9-.6-1.6.9-2.1 1.9-.6zm7.2 1.7c-.3.3-1.2.4-1.9.1-.8-.3-.5-.6.6-.6 1.1-.1 1.7.2 1.3.5zm-.7 2.9c0 1.2-1.9 1.2-2.3 0-.4-.9-.1-1.2.9-.8.7.3 1.4.7 1.4.8zm-22.5.5c.3.5.1 1-.4 1-.6 0-1.1-.5-1.1-1 0-.6.2-1 .4-1 .3 0 .8.4 1.1 1zm-11.5 2.2c0 .5-.4.7-.9.3-.5-.3-1.2-.1-1.6.5-.4.6-1.1.8-1.6.5-1.3-.8 1.3-3.4 2.8-2.8.7.3 1.3.9 1.3 1.5zm29 9.3c1.2 1.4 1 1.6-.7 1.4-1.2-.2-2.4 3.1-1.7 4.4.5.7.1.7-1-.2-1.1-1-1.3-1.6-.6-2.1.6-.4 1-1.1.9-1.6-.6-3.4 1-4.4 3.1-1.9zm178.5-44.1c-14.4 3.3-17.7 4.7-23.2 9.8-6 5.8-8.5 11.2-10.3 23.1-1.9 12.7.7 25.3 7.1 34.2 8.6 12 26.5 17.3 44.1 13 9.6-2.3 13.5-4.4 18.7-10 8.4-9.1 12.3-23.4 10.1-37.1-1-6.3-2-8.8-8-20.3-5.3-10-23.6-16.1-38.5-12.7zm11.3 23.4c3.7 4.8 4.3 26.4.9 32.9-3.1 5.9-9.6 5.3-11.5-.9-1.7-5.4-2.3-17.9-1.2-24.3 1.5-9.2 7.5-13.1 11.8-7.7zm10.9 38.7c0 .8-.4 1.2-.9.9-.5-.3-.6-1-.3-1.5.9-1.3 1.2-1.1 1.2.6zm-106-60.8c-.4.3-.7 1.4-.7 2.4 0 1.6.7 1.8 4.4 1.4 2.5-.3 4.9-.5 5.3-.6 2.5-.4 4.1.4 5.1 2.5.9 2 .8 2.9-.7 4.8-1.8 2.2-2.1 2.9-2.1 4.6 0 .5-1.7.9-3.7 1-9 .2-8.3-.2-8.3 4.7v4.5h-9v-7.8c0-7.1-.2-8-2.5-10-1.4-1.3-3-3.4-3.5-4.8l-1-2.5-13.2.3-13.3.3-.3 5c-.6 8.2.9 41.5 1.9 41 .4-.3.5-1.3.2-2.2-.5-1.2-.2-1.5 1-1 2.1.8 2.1.8.1-3.9l-1.6-3.9 2.4 2.3c2.3 2 2.6 2.1 3.8.7.7-.9 2-1.3 2.8-1 1.2.4 1.2.3.3-.9-.9-1-.9-1.6-.1-2.1.6-.4 1.2-.5 1.3-.4 2.3 4.3 4.7 6.4 4.7 4 0-.6-.7-1.1-1.5-1.1-.9 0-1.5-.9-1.5-2.5v-3c0-.3.1-.4.3-.3.1.1 1.3-.4 2.7-1.2l2.5-1.2-2.3 2.2c-1.8 1.7-2.1 2.5-1.2 3.4.7.7 1.3.7 1.8.1.8-1.2 2.2-1.3 3.9-.2 1.1.7 3.1-1.6 3.1-3.8.1-1.6 1.8-1.6 3.2 0 1.1 1.3 1 1.5-.6.9-1.5-.5-1.6-.4-.4.5.8.5 1.9.6 2.3.2 1-1 9.7 4.5 9.7 6 0 .5-.9 0-2-1.1s-2.5-2-3-2c-2.7 0-12.9 3.4-12.4 4.2.3.4 1.3.4 2.2 0 2.5-1.2 4.7-.8 4.4.8-1 4.2-1 5 .3 5 .9 0 1.1-.8.8-2.3l-.6-2.2 2 2.2c1.1 1.3 2.6 2.3 3.3 2.3.9 0 .7-.7-.6-2.1-1.4-1.6-1.5-2.2-.5-2.8 1-.7.9-.9-.3-1.4-.8-.3-1.7-.1-2 .6-.2.7-.5.7-.5.2-.3-4.1 5.3-4.4 7.7-.4 1.2 1.8 1.2 2.3 0 3-1 .7-1 .9.2.9.9 0 1.1.3.5.8-1.7 1.2-4.1 4.7-2.7 3.8.7-.4 1.2-.2 1.2.8 0 .8-.6 1.7-1.2 1.9-.7.3.4.6 2.5.6 3.2.1 3.7.4 3.7 2.5 0 3.6 1 5.5 2.6 4.9.8-.3 1.4 0 1.4.7 0 .6.4.9.9.5.5-.3 1.2-.1 1.5.4.7 1.1-2.9 5.3-3.8 4.4-.4-.4-1.1-.1-1.5.6-1.2 1.8-.2 5.2 1.3 4.4.6-.4.5 0-.2.9-.9 1.1-1.1 2.9-.6 5.2l.6 3.6H327c13.5 0 15.9-.2 16.4-1.6.3-.9.6-18.3.6-38.8 0-27.6-.3-37.5-1.2-38.4-1.3-1.3-30.9-1.8-32.1-.5zm5.3 21.2c0 1.2-2 2.5-2.7 1.8-.7-.7.6-2.7 1.8-2.7.5 0 .9.4.9.9zm143.4-20.4c-.2.6-.3 18.1-.2 39l.3 38 30.8.3 30.8.2-.3-11.7-.3-11.8-14.2-.3c-14.2-.3-14.3-.3-14.3-2.6 0-2.3.3-2.3 12.8-3.2l12.7-.9.1-7.5c.2-11.7 1.2-10.9-13.4-11.2l-12.7-.3v-5l14-.5 14-.5v-23h-29.9c-19 0-30 .4-30.2 1zm221.6.5c-.9 1.8-2.3 73.2-1.4 75.5.5 1.3 2.5 1.5 12.8 1.4 6.6-.1 11.3-.4 10.3-.6-1.3-.4-1.6-1-1.1-2.6.4-1.2.8-3.6.8-5.4.2-3.8 1.1-5 2.9-3.5.7.6 1.8.7 2.7.2 1.1-.7 1.1-1.1.1-2.4-1.6-2 .2-5.6 2.9-5.6 1 0 2.2-.5 2.5-1 .3-.6 1.5-1 2.6-1s1.7-.5 1.4-1c-.3-.6-1.5-1-2.6-1-1.8 0-1.9-.8-1.9-16 0-8.8-.3-16-.6-16-1.6 0-4.4 2.3-4.4 3.5 0 .8-.4 1.5-.9 1.5-1.2 0-.9 3.3.4 4.2.7.5.6.8-.1.8-.5 0-2.2-1.2-3.6-2.8-2.5-2.5-2.6-2.9-1.3-6 .8-1.7 2.1-3.2 2.9-3.2.8 0 2.4-1 3.6-2.2l2-2.2.1 3c.1 2.9.1 2.9.9-.5.5-1.9.6-4 .3-4.7-.2-.6 0-1.5.6-1.9 1.5-.9 1.4-8.8-.1-10.3-.8-.8-4.5-1.1-10.7-1-5.3 0-8.1.3-6.3.5 2.8.4 4.7 2.3 2.2 2.3-.5 0-1 .9-1 1.9 0 2.3-2.6 3.5-3.4 1.5-.8-2.2-2.3-1.7-2.2.8.1 1.7.7 2.3 2.6 2.3 1.4 0 3.1-.4 3.8-.9.7-.5 1.5-.6 1.9-.2.3.3.1.6-.5.6-.7 0-1.2.8-1.2 1.8 0 1.5.6 1.8 3 1.4 1.6-.2 2.7-.8 2.4-1.3-.3-.5.5-1 1.8-1.1 1.3 0 2.8-.2 3.3-.3.6-.2 1.5-.3 2-.4.6-.1.2-.8-.8-1.5-1.2-.9-1.4-1.6-.8-2.1 1.5-.9 4.3 2.1 3.9 4.3-.2 1.1-1.8 2.1-4.3 2.7-2.2.5-4.2 1.2-4.5 1.5-.3.3-1.8 1.1-3.4 1.8-2.4 1.1-3.1 1-4.7-.4-1.3-1.2-2.9-1.5-5.4-1.1-1.9.3-3.5.2-3.5-.4 0-.5.7-.9 1.5-.9s1.5-.5 1.5-1c0-1.3-.6-1.3-2.9.2-2 1.2-5.1.5-5.1-1.2 0-.7.8-.9 2-.5 2.8.9 3.5-1.7 1.6-5.6-2-3.9-2-3.9 0-3.9.8 0 1.2.4.9 1-.9 1.4.7 1.2 2.8-.4 1.6-1.3 1.3-1.4-2.8-1.8-3.4-.2-4.9.1-5.5 1.2zm31.8 3.1c.2 2.3.2 2.3-1.3.5-1.8-2.4-2-3.9-.2-3.4.6.3 1.3 1.5 1.5 2.9zm154-4.4l-11.8.4-5.6 11.9c-5.5 11.7-6.7 13.3-7.7 10.7-.4-1.1-.8.2-2.2 6.8-.8 3.7-4.2 6.7-6.8 6.1-1.2-.3-1.6-.3-.9 0 .6.3 1.2 1.3 1.2 2.2 0 1.2.3 1.3 1.2.4.7-.7 2.4-1.2 3.9-1.2s3.1-.5 3.5-1.1c1-1.6 2.5 1.2 1.8 3.4-.4 1.3.2 1.9 2.5 2.3 3.3.7 5.3 2.4 2.8 2.4-1 0-1.3.7-1 2 .7 2.6-2.5 2.8-3.4.2-.7-1.8-5.2-6.1-6.7-6.2-.5 0-.2.7.5 1.6 1.1 1.4 1 1.8-.5 3-1.1.7-2.4 1.1-2.9.7-.6-.4-.8 0-.4 1.1.4 1-.1 2.4-1.3 3.6-1.1 1.1-2 1.7-2 1.3 0-.3-.8 0-1.7.8-1 .8-3.7 2.4-6 3.4-3.4 1.7-4.2 2.6-4.7 5.5-.6 3.8.2 8 1.4 8 .5 0 1.3 1.2 2 2.7 3.1 7.4 2.9 7.3 10.5 7.3 4.2 0 7.6-.5 8.3-1.2.8-.8 1.2-5.2 1.2-12.7.1-10.6.2-11.4 1.6-9.6 1.5 2 9.6 15.9 11.8 20.2 1.1 2.2 1.5 2.3 18.4 2.3 15.2 0 17.2-.2 17.2-1.6 0-1.7-5.5-11.9-16.1-29.6-3.2-5.5-5.9-10.3-5.9-10.8 0-.4 2.6-5.2 5.9-10.6 14.6-24.6 14.1-23.8 12.4-25.2-.9-.6-3.3-1.1-5.2-1-2 .1-8.9.4-15.3.5zM840 854c0 .5-.5 1-1.1 1-.5 0-.7-.5-.4-1 .3-.6.8-1 1.1-1 .2 0 .4.4.4 1zm-11.4 12.2c.1 1.1-.4 1.5-1.7 1.3-1-.2-1.9.1-1.9.6 0 .6-.6.7-1.2.4-.7-.4-.2.3 1.2 1.5s1.9 1.9 1.3 1.5c-.7-.3-1.3-.1-1.3.6 0 .9-.3.9-1.4 0-1-.8-1.6-.9-2.1-.1-1.3 2-2.5.9-1.9-1.8.7-2.9 3.2-5.5 4.5-4.7.4.3 1.1.1 1.4-.5.9-1.5 2.8-.7 3.1 1.2zm5.8-.6c.3.8.2 1.2-.4.9-.6-.3-1-1-1-1.6 0-1.4.7-1.1 1.4.7zm-2 8.4c-.6.6-1 .3-1-1s.4-1.6 1-1c.7.7.7 1.3 0 2zm72.8-65.5c-.4.5-.8 17.5-1 37.8-.3 27.7-.1 37.1.8 38.2 1 1.2 6 1.4 31.3 1.2l30.2-.2.3-10.9c.2-8.1-.1-11.2-1-11.8-.7-.4-7.6-.8-15.3-.8h-14l-3 4.5c-1.6 2.5-3.2 4.5-3.5 4.5-.3 0-1.6-1.7-2.9-3.7-2.2-3.5-2.3-3.7-.5-5 1-.7 2.1-1.3 2.6-1.3.4 0 .8-.7.8-1.6 0-2.5 3.1-11.2 4.4-12.2.6-.5 2.6-1.2 4.4-1.5 2.5-.5 3.7-.2 5.3 1.4l2 2-2.1 3.4c-1.1 1.8-1.6 3.5-1 3.7.5.1 5.1.1 10.2-.2l9.3-.5v-18l-12.7-.3-12.8-.3V831h14c16.4 0 15.3 1.1 14.8-14l-.3-9.5h-29.8c-18.8 0-30.1.4-30.5 1zm-141.4.7c-.9.5-.6.8 1 .8 1.3 0 2.1.4 1.8.8-.2.4.9 1.4 2.6 2.1 1.6.8 2.5 1.6 2 2-1.7 1-2.6 6.1-1.1 6.1.7 0 .9.3.6.7-.4.4-2.4-.9-4.3-2.8-2.3-2.1-3.8-2.9-4.1-2.2-.5 1.5-5.3-.4-5.4-2.1 0-.6-.4-.3-.8.8-.4 1-.6 7.5-.4 14.5.1 6.9.3 13.6.3 14.9 0 1.3.4 2.1.9 1.8 1.1-.7 2.1 1.7 2.1 5 0 1.4.4 2.3.9 2 .5-.3 1.1.1 1.5.9.6 1.6-2.8 4-4.4 3-.6-.4-.9 2.8-.9 8.7.1 5.1.4 8.1.6 6.5.2-1.5.9-2.5 1.4-2.1.5.3.6 1 .2 1.7-.3.6.7.1 2.4-1.1 1.7-1.2 3.4-1.8 3.8-1.4.5.4.5.2.1-.5-.3-.6-.2-1.4.4-1.8.5-.3 1-1.3 1-2.2 0-.9-.3-1.3-.7-1-.3.4-1.2.2-2-.4-1.6-1.4-1.7-6.5-.2-7.4.6-.4.8-1.3.6-1.9-.9-2.2.9-3.9 3.2-3.1 1.1.3 2.1 1.1 2.1 1.6s.5.9 1.1.9c.8 0 .8-.4.1-1.3-1.4-1.8.4-6.3 2.1-4.9.8.7 1.6.6 2.5-.4.7-.8 1.1-1.4 1-1.5-.2 0-1.4-.2-2.8-.3-3.4-.4-5.2.4-4.6 2 1.1 2.9-3 1.3-6.9-2.7-3.7-3.7-3.9-4.2-2.2-5.3 1.8-1.4 2.4-4.6.7-4.6-.5 0-1-.7-1-1.5s-.4-1.5-1-1.5c-.5 0-1-.4-1-.8 0-.5 2.3-.8 5.1-.6 3.9.2 4.8 0 4-1-.6-.7-.8-1.5-.5-1.9.3-.3-.4-.8-1.5-1.2-1.2-.3-2.6-1.5-3.1-2.5-.8-1.5-.6-2.1.9-3 3.2-1.7 6.3.8 6.6 5.3 0 1 2.7 2.7 3.6 2.2.3-.3 1.5.5 2.7 1.5 2.4 2.3 3.2 2.5 3.2.8 0-.6-1.3-2.3-2.8-3.7-3.1-2.9-3.8-8.5-1.3-11.4 1.8-2.3 3-2.1 4 .5.9 2.2.9 2.2 1.7-.7.4-1.6 1.3-3.6 2.1-4.3 1.7-1.8 1.7-3.2-.2-3.2-.8 0-1.5.7-1.5 1.5 0 2-1.7 1.9-2.9-.2-.5-1-1.3-1.5-1.6-1.1-.4.4 0 1.5 1 2.4 1.7 1.7 1.7 1.8-.1 2.5-1.2.4-2 .1-2.2-.7-.2-.8-.8-1.4-1.3-1.4-.6 0-.7-.4-.4-1 1.1-1.7-6.2-2.4-8.7-.8zm-5.2 56.3c-1.5 1.5-1.6 1.4-1.6-1.6 0-3.1.1-3.2 1.6-1.7 1.6 1.5 1.6 1.8 0 3.3zm-2.4-54.5c0 1.4.2 1.9.5 1.2.2-.6.2-1.8 0-2.5-.3-.6-.5-.1-.5 1.3zm-532.8-.3c.4.7.2 1.3-.4 1.3-.6 0-.8.5-.4 1.1.4.8.9.8 1.7 0 .8-.8.7-1.4-.2-2.4-1.1-1-1.3-1-.7 0zm617.8 1.3c0 1.4.2 1.9.5 1.2.2-.6.2-1.8 0-2.5-.3-.6-.5-.1-.5 1.3z"/><path d="M694 813c0 .5.5 1 1 1 .6 0 1-.5 1-1 0-.6-.4-1-1-1-.5 0-1 .4-1 1zm94 5.2c0 3.9-.4 5.8-.9 4.9-.5-.7-.6-2.2-.4-3.2.3-1.1 0-1.9-.6-1.9-.7 0-.9-.5-.5-1.3.5-.7 0-.6-1.1.3-1.7 1.4-1.8 1.3-1.3-.8.4-1.5.2-2.2-.8-2.2-1.8 0-1.8.3.7 5.2l2.1 4.1-2.2 1.7-2.3 1.7 2.2.6c1.1.3 2.4.1 2.7-.4 1-1.6 2.2-1 2.7 1.3.2 1.3.5-1.9.6-7 0-5-.1-9.2-.4-9.2-.3 0-.5 2.8-.5 6.2zm-564-.2c0 .6.5.8 1.1.4.6-.3 1.6 0 2.1.7.8 1.2.9 1.1.5-.1-.4-1.8-3.7-2.7-3.7-1zm13.4.5c.3.8-.5 1.2-2.1 1.2-1.4 0-3 .8-3.5 1.7-.5.9-1.3 1.4-1.8 1.1-2-1.2-1.8 1.5.2 2.9s1.8 2.1-.6 1.7c-.5-.1-.6.5-.3 1.3.4 1-.2 1.6-1.6 1.9-1.8.4-1.7.5.6.6 1.8.1 2.7-.4 2.7-1.4 0-.8.5-1.5 1.1-1.5.5 0 1.7-1.6 2.5-3.5 1.3-3.2 2.4-4 4.7-3.6.4 0 .7-.5.7-1.2 0-.9.2-.9.9.1.6 1 1 1 2.1-.3.7-.8 1.1-1.5.9-1.6-3.1-.7-6.9-.3-6.5.6zm457.6.9c0 .9.5 1.6 1 1.6.6 0 1-.4 1-.9 0-.6-.4-1.3-1-1.6-.5-.3-1 .1-1 .9zm134.5 3c-1.1.8-1.4 1.5-.8 1.9.6.4 1.6 0 2.3-.8 1.7-2.1.8-2.8-1.5-1.1zm-14.2 1.8c-1.4 1.8.7 5.3 3.2 5.3 1.1 0 2.5.3 3.2.8.7.5 1.6.1 2.3-1.3.6-1.1 1.5-1.8 2.1-1.5.5.4.9-.1.9-.9 0-1.3-1-1.6-4.6-1.4-2.7.1-4.9-.4-5.3-1.1-.6-.9-1-.9-1.8.1zm-572 4.4c-1.9 2-1.6 2.4 1.6 2.4 2.7 0 4.9-1.5 3.8-2.6-1.1-1.2-4.3-1.1-5.4.2zm567 9.9c0 5.5.2 8.3.4 6.2.3-2.9.9-3.7 2.4-3.7 1.2 0 1.9-.7 1.9-1.8 0-1 .5-2.3 1.2-3 .9-.9.9-1.2 0-1.2-.7 0-1.2.5-1.2 1.1 0 .6-.8.9-1.7.7-1.2-.2-2-1.6-2.4-4.3-.4-2.4-.6 0-.6 6zm-22.5-2.3l-.3 3.3-2-2.3c-1.9-2.2-4.5-3-4.5-1.4 0 .4 1.5 2.3 3.3 4.1 3.3 3.1 3.4 3.5 3.6 11.3 0 4.8-.3 8.4-.9 8.8-.8.5-.8 1.5 0 3.4 1 2.8 1.4 9.6.5 9.6-.3 0-1.7-.7-3.1-1.7-1.7-1.1-2.1-1.8-1.3-2.3.6-.4.8-1.3.5-1.9-.4-.6-1.2-.9-1.7-.6-.5.4-.9 0-.9-.7 0-.9-.3-.9-.8-.2-.4.6-1.5 1.3-2.4 1.7-2.8 1-2.3 4.7.6 4.7 1.3 0 2.9.7 3.7 1.6.8.9 2.1 1.3 3.5 1 1.8-.5 2.4-.1 2.7 1.6.2 1.3.5-7.9.6-20.5.1-20.8-.3-27.8-1.1-19.5zm-.7 4.5c1.3 1.6 1.2 1.7-.3.4-1-.7-1.8-1.5-1.8-1.7 0-.8.8-.3 2.1 1.3zm-10.1-3.2c0 .8.2 1.5.4 1.5s.6-.7 1-1.5c.3-.8.1-1.5-.4-1.5-.6 0-1 .7-1 1.5zm-7 .9c0 .9.5 1.6 1 1.6.6 0 1-.4 1-.9 0-.6-.4-1.3-1-1.6-.5-.3-1 .1-1 .9zm-536 .4c0 1.5 2.4 3.2 4.6 3.2 1.2 0 3.4 1 5 2.2 2.7 2 2.8 2 .9 0-1.8-1.8-8.8-6.2-10-6.2-.3 0-.5.4-.5.8zm581 6.3c0 .5.5.7 1 .4.6-.3 1-.8 1-1.1 0-.2-.4-.4-1-.4-.5 0-1 .5-1 1.1zm-586 3.8c0 .5.5 1.3 1 1.6.6.3 1 .2 1-.4 0-.5-.4-1.3-1-1.6-.5-.3-1-.2-1 .4z"/><path d="M782.2 849.2c-1.9 1.9-1.4 2.8 1.2 2.8 2.9 0 4.4-1.9 2.5-3.1-1.8-1.2-2.3-1.1-3.7.3zm33.3.8c.3.5 1 1 1.6 1 .5 0 .9-.5.9-1 0-.6-.7-1-1.6-1-.8 0-1.2.4-.9 1zm-575.1 2.9c.1 3.4.6 3.7 2.4 1.9.9-.9 1.2-.8 1.2.4 0 .9.5 2 1.1 2.3.6.4.9 0 .7-1.1-.2-1.1.4-2 1.4-2.2 1.3-.2 1.6.1 1.2 1.2-.3.9-.2 1.6.4 1.6.5 0 .9 1.9.8 4.2-.1 3.4-.5 4.3-1.8 4.2-1-.1-1.8.3-1.8.9 0 .6-1.3-.4-2.9-2.3-1.6-1.9-3.2-3.2-3.6-2.8-.4.3-1.6-.3-2.7-1.4-1.1-1.1-2.6-1.7-3.4-1.4-.8.3-1.4.1-1.4-.4 0-.6-.5-1-1.1-1-.5 0-.7.4-.4 1 .4.6-.1.7-1.1.3-1.4-.5-1.4-.7.5-1.7 2-1.1 2-1.2.1-2.4-1.1-.7-2-.8-2-.3s-1.1.8-2.5.5c-1.4-.2-2.5-.1-2.5.4 0 1.2 3.4 4.2 4.8 4.2.7 0 2.7 1.5 4.6 3.4 3.2 3.4 3.3 3.4 4.9 1.5 1.4-1.6 2-1.7 3.7-.7 2.9 1.8 3.2 3.6 1 5.8-2.8 2.8-2.5 3.9 1 4.6 3.5.7 3.6 1 1.3 3.8-1.7 2-1.7 2 0 .6 4.1-3.1 6.1-9.1 6.2-17.7 0-5.8-.4-8.6-1.4-9.5-1.2-1.1-1.3-1-.7.6.5 1.4.3 1.6-.6.9-.7-.6-2.7-1.4-4.4-1.7-3-.7-3.1-.5-3 2.3zm5.5 18.7c-1.4 1.8-2.4 1.1-1.5-1.1.3-.9 1.1-1.3 1.6-1 .8.5.7 1.1-.1 2.1zm38-20.4c-.7 2.9-.5 3.6.7 3.1 1.6-.6 1.8-1.9.4-2.8-.5-.3-1-.5-1.1-.3zm525.4 2.3c-.3.9-.3 1.9.1 2.2.7.7 3.6-1.6 3.6-2.8 0-1.5-3-1-3.7.6zm-531.3.4c0 .6.4 1.2.8 1.5.5.3.9-.1.9-.9s-.4-1.5-.9-1.5c-.4 0-.8.4-.8.9zm502 .6c-1 1.2-.6 1.7 2.2 2.8 3.6 1.6 5.2 1 4.2-1.6-.7-1.9-2-2.2-2.9-.7-1 1.6-2.8 1.2-2.1-.5.7-1.9.2-1.9-1.4 0zM270 857c-.9 1.6-.8 2 .5 2 .8 0 1.5-.9 1.5-2s-.2-2-.5-2c-.2 0-.9.9-1.5 2zm25-1.3c0 .5.7 1.8 1.5 2.9 1.2 1.6 1.4 1.6 1.5.3 0-.9-.7-2.2-1.5-2.9-.8-.7-1.5-.8-1.5-.3z"/><path d="M274.5 858c.5 1.4.2 2-.9 2-.9 0-1.6.4-1.6 1 0 1.4-2.7 1.2-3.3-.3-.3-.6-.6.4-.6 2.3 0 2.9.2 3.3 1.2 1.9 1.5-1.9 3.7-1.4 3.8.9 0 1.6.1 1.6 1.2 0 1-1.5 1.4-1.3 3.8 1.5 1.5 1.7 3.1 2.8 3.5 2.4.4-.4-.2-1.4-1.4-2.3-1.2-.8-2.2-2.4-2.2-3.6 0-1.4-.5-1.8-1.5-1.4-1.8.6-2-.5-.4-2.1 1.3-1.3.5-4.3-1.1-4.3-.7 0-.9.8-.5 2zm494.5.1c0 .5.5.7 1 .4.6-.3 1-.8 1-1.1 0-.2-.4-.4-1-.4-.5 0-1 .5-1 1.1zm12.5.9c.3.5.8 1 1.1 1 .2 0 .4-.5.4-1 0-.6-.5-1-1.1-1-.5 0-.7.4-.4 1zm-155.1 4.1c-.4.7-.9 6.4-1.1 12.9-.4 9.3-.2 11.9 1 12.8 1 .9 5.8 1.2 16.3 1l14.9-.3.2-12.5c.1-7.4-.3-13-.9-13.7-1.4-1.7-29.4-1.8-30.4-.2zm7.1 11.9c.3.6-.1.7-.9.4-1.8-.7-2.1-1.4-.7-1.4.6 0 1.3.4 1.6 1zm-337.6-9.1c-3.2 1.4-3.5 1.9-2.6 3.9 1 2.2 4.7 3.1 4.7 1.1 0-.5.4-.7 1-.4 1.2.8 2.5-4.4 1.4-5.4-.5-.5-2.5-.1-4.5.8zm-72.2 1.2c1.4 1.4 7.3 2.2 7.3 1 0-.5-1.1-.8-2.5-.6-1.4.1-2.8-.2-3.1-.6-.3-.5-1-.9-1.7-.9-.8 0-.8.3 0 1.1zm-21.2 3.9c-.3.5-.1 1 .4 1 .6 0 1.1-.5 1.1-1 0-.6-.2-1-.4-1-.3 0-.8.4-1.1 1zm3.5.9c0 .5.7 1.2 1.6 1.5 1.4.5 1.5.4.4-.9-1.4-1.7-2-1.9-2-.6zm-16.5 2.1c.3.5.8 1 1.1 1 .2 0 .4-.5.4-1 0-.6-.5-1-1.1-1-.5 0-.7.4-.4 1zm89.5.6c0 .8.5 1.2 1 .9.6-.3 1-1 1-1.6 0-.5-.4-.9-1-.9-.5 0-1 .7-1 1.6zm15 5.8c0 1.2-.5 2.8-1 3.6-.7 1.1-.9.7-.7-1.5.3-4-2.8-4.5-7.6-1.2-5.5 3.7-3.6 4.9 6.9 4.5l8.9-.3.1-3.6c.1-3.3 0-3.5-3.2-3.5-2.8 0-3.4.4-3.4 2zm3.3 1.3c-.4 1.1-.3 1.4.5.9.7-.4 1.2-.2 1.2.4 0 1.2-2.8 2.5-3.6 1.7-.6-.5 1.3-4.7 2.1-4.7.2 0 .1.7-.2 1.7zm457.7-3c.1 2.1 2.1 3.3 6.5 3.9 3.6.5 4.6.4 4.1-.5-.4-.6-1.1-.9-1.6-.6-.4.3-1.1-.1-1.4-.7-.5-1-.7-1-1.2-.1-.4.8-1.1.6-2.5-.8-1.9-1.9-3.9-2.5-3.9-1.2zm28 2.7c-.6 1.6-.9 3.7-.7 4.5.3 1 .5.8.6-.6.1-1.4.9-2.3 2.2-2.5 1.8-.3 1.9-.5.5-2.3-1.4-2-1.5-1.9-2.6.9zm5.1-.8c0 1.1.3 1.4.6.6.3-.7.2-1.6-.1-1.9-.3-.4-.6.2-.5 1.3zM234.6 882c.3.2-1 1-2.8 1.6-2.2.8-2.6 1.3-1.3 1.3 1.1 0 3.6-.8 5.5-1.8 3.3-1.8 3.4-1.9.8-1.8-1.4.1-2.4.4-2.2.7zm32.4.6c0 2 2.8 3.6 5.7 3.1 2.7-.4 2.7-.4-.4-.6-1.9 0-3.6-.8-4.2-1.9-.6-.9-1.1-1.2-1.1-.6zm-50.5 3.5c-2.5.6-2.3.7 1.5.7 2.5 0 5.9-.4 7.5-.8 2.6-.7 2.4-.8-1.5-.6-2.5 0-5.8.4-7.5.7zm-77.2 10.1c2.5.9 3.1 2.3 3 6.5-.1 1 2.6 1.3 10.6 1.2 5.8-.1 9.8-.3 8.8-.6-.9-.2-1.5-.9-1.1-1.4.3-.6-.5-.8-1.8-.5-1.8.3-2.6-.2-3.5-2.1-1-2.1-.9-2.5 1-3.3 1.5-.6-1.5-.9-8.8-.9-8.5.1-10.4.3-8.2 1.1zM150 902c0 .5-.2 1-.4 1-.3 0-.8-.5-1.1-1-.3-.6-.1-1 .4-1 .6 0 1.1.4 1.1 1z"/><path d="M158.6 896.5c-.4 1.2-.1 1.6 1.1 1.3 1.8-.3 2.1-2 .5-2.6-.5-.1-1.2.4-1.6 1.3zm4.4.4c0 .5.7 1.1 1.5 1.5.8.3 1.5.1 1.5-.3 0-.5-.7-1.1-1.5-1.5-.8-.3-1.5-.1-1.5.3zm-44.4 2.1c-1.6.5-3.4.6-3.9.3-.6-.4-.7.4-.3 2 .4 1.9.2 2.7-1.1 3-1.4.4 2.7.2 4.6-.2.2-.1-.2-.7-.8-1.4-.6-.8-.8-1.7-.4-2 1.1-1.1 6.3-.8 6.3.4 0 .5.5.7 1 .4.8-.5.7-1.1-.1-2.1-1.3-1.6-1.3-1.6-5.3-.4zm7.4 0c0 .5.5 1 1.1 1 .5 0 .7-.5.4-1-.3-.6-.8-1-1.1-1-.2 0-.4.4-.4 1zm5.5 4c-.3.5-.1 1 .4 1 .6 0 1.1-.5 1.1-1 0-.6-.2-1-.4-1-.3 0-.8.4-1.1 1z"/></svg>