<svg height="512" width="512" xmlns="http://www.w3.org/2000/svg"><path d="M480 304v16l-88 32-81.55-1.94-161.92-3.86L56 344l-32-32s-3.49-39.2 0-72c.48-4.56 1.22-9.86 2.15-15.62 1.64-10.23 3.86-21.92 6.26-33.55 6.62-32 14.6-63.52 15.59-62.83l116.79-20.61a24 24 0 0126.45 14.72l1.9 4.75 19.93 49.82L216 184s39.7 24.43 79.47 44.98c16.29 8.42 32.59 16.19 46.18 21.37A118.94 118.94 0 00360 256c2.55.51 5.2 1.02 7.93 1.53 24.82 4.63 55.84 9.09 75.8 11.8a38.861 38.861 0 0129.49 21.1z" fill="#e4e4e3"/><path d="M480 304v16l-88 32-81.55-1.94L264 344l56-53.4s46.82 2.46 72 0c17.62-1.72 43.49-12.49 58.95-19.57a38.832 38.832 0 0122.27 19.4zm-331.47 42.2L56 344l-32-32s-3.49-39.2 0-72c.48-4.56 1.22-9.86 2.15-15.62L112 264zm193.12-95.85L312 280s-40-8-88-32-80-72-80-72l49.14-49.14 19.93 49.82L216 184s4.87 3 12.91 7.77c4.03 2.4 8.85 5.24 14.26 8.38 4.94 2.87 10.38 5.98 16.13 9.23 4.66 2.63 9.54 5.35 14.55 8.09 22.77 12.46 48.13 25.39 67.8 32.88z" fill="#ed5749"/><path d="M488 328c-32 16-96 48-192 48-74.805 0-198.185-4.857-249.018-7A24 24 0 0124 345.019V312s176 16 272 16 152-8 184-24z" fill="#cacac9"/><path d="M213.07 176.68C194.79 190.51 157.15 216 128 216a110.761 110.761 0 01-15.88-1.31c-26.84-3.98-60.18-16.1-79.71-23.86 1.51-7.28 3.08-14.53 4.63-21.39C42.3 146.16 47.24 127.47 48 128l116.79-20.61a24 24 0 0126.45 14.72l1.22 3.05 7.89 19.73z" fill="#4e4e4e"/><path d="M200.35 144.89l-88.23 69.8c-26.84-3.98-60.18-16.1-79.71-23.86 1.51-7.28 3.08-14.53 4.63-21.39l155.42-44.28z" fill="#ed5749"/><path d="M367.93 257.53l-64.58 70.45-54.8-.94c12.21-13.19 33.8-38.1 39.45-55.04 4.78-14.32 6.7-31.5 7.47-43.02 11.12 5.75 22.25 11.2 32.52 15.71 4.77 2.11 9.35 4.02 13.66 5.66.82.31 1.62.62 2.42.9A110.027 110.027 0 00360 256c2.55.51 5.2 1.02 7.93 1.53z" fill="#e5493d"/><path d="M495.59 325.47l-8-24a7.912 7.912 0 00-.442-1.041h.008l-6.783-13.576a46.87 46.87 0 00-35.566-25.453c-17.138-2.326-49.723-6.944-75.406-11.735-2.7-.5-5.314-1.008-7.835-1.512-5.647-1.128-13.254-3.643-22.614-7.478-10.982-4.5-24.376-10.824-39.812-18.8-8.785-4.535-18.439-9.725-28.7-15.426a1485.437 1485.437 0 01-48.004-27.887l-23.771-59.42a32.132 32.132 0 00-35.265-19.63L47.02 120.05a7.991 7.991 0 00-1.972.485c-4.509 1.748-5.4 5.139-8.718 17.755-2.076 7.893-4.592 18.327-7.084 29.377a1370.358 1370.358 0 00-4.671 21.546c-2.643 12.81-4.771 24.217-6.322 33.891-.985 6.1-1.729 11.5-2.208 16.049-3.4 31.937-.406 68.979-.045 73.2v32.667a31.921 31.921 0 0030.645 31.973C96.7 379.1 221.212 384 296 384c97.889 0 163.869-32.99 195.578-48.845a8 8 0 004.012-9.685zm-29.527-31.465l3.067 6.137c-29.391 12.128-76.855 18.452-147.414 19.642l18.71-20.411c6.722.186 14.233.324 21.777.324 10.929 0 21.907-.288 30.574-1.135 17.125-1.672 40.644-10.876 58.406-18.854a30.6 30.6 0 0114.88 14.297zm-278.35-159.174l3 7.486-80.775 63.908c-23.009-3.916-50.515-13.54-68.293-20.377.733-3.433 1.461-6.786 2.179-10.028zm-53.739 72.774l62.933-49.791 6.445 16.11c-15.875 11.529-45.408 30.744-69.378 33.681zM31.956 240.838c.155-1.47.342-3.046.557-4.711l73.4 33.873 18.679 42.024a6067.422 6067.422 0 01-93.109-7.393c-.798-12.415-2.058-40.004.473-63.793zm110.705 72.446l-23.35-52.533a8.012 8.012 0 00-3.958-4.015l-80.307-37.061q1.423-8.273 3.325-17.942c21.591 8.217 49.258 17.41 72.588 20.861l.144.019A117.039 117.039 0 00128 224c12.057 0 25.226-3.855 38.012-9.458 17.488 17.635 35.769 31.288 54.409 40.613a430.888 430.888 0 0055.924 23.132c-5.938 10.643-16.8 24.819-31.192 40.621-28.972-1.085-63.407-2.975-102.492-5.624zm152.928-38.751c3.552-10.64 5.6-22.633 6.787-33.078q10.5 5.23 19.556 9.3l-7.589 7.59 11.314 11.314 12.2-12.2c5.518 2.133 10.4 3.787 14.724 4.978l-52.76 57.556c-1.273 0-2.532.01-3.822.01-8.914 0-18.988-.145-30.077-.431 12.643-14.778 25.233-31.748 29.667-45.039zm75.249-8.336c16.443 2.974 34.878 5.817 51.266 8.183-10.755 3.974-22.061 7.4-30.882 8.258-10.157.992-24.14 1.143-36.382 1.011zm-147.765-68.584l-12.73 12.73 11.314 11.314L237.314 206q8.237 4.792 16.12 9.252l-11.091 11.091 11.314 11.314 14.3-14.3a1088.766 1088.766 0 0019.124 10.28 181.346 181.346 0 01-4.869 29.743 414.551 414.551 0 01-54.637-22.531c-15.5-7.753-31.374-19.35-46.373-33.8a289.026 289.026 0 0028.575-18.028 7.988 7.988 0 002.025 1.8c.061.027 4.303 2.636 11.271 6.792zm-56.9-82.344a16.072 16.072 0 0114.526 4.922l-132.8 37.828c2.6-10.908 4.659-18.725 5.9-22.919zM296 368c-74.484 0-198.725-4.891-248.684-6.993A15.958 15.958 0 0132 345.02v-24.281c17.247 1.5 58.09 4.962 104.762 8.182 42.929 2.948 80.445 5.006 111.507 6.114 18.184.641 34.244.965 47.731.965q3.736 0 7.385-.02c83.9-.367 137.669-6.89 171.835-21.023l2.993 8.981C445.625 340.055 384.155 368 296 368z"/></svg>